<?xml version="1.0" standalone="no"?>
<!DOCTYPE svg PUBLIC "-//W3C//DTD SVG 20010904//EN"
 "http://www.w3.org/TR/2001/REC-SVG-20010904/DTD/svg10.dtd">
<svg version="1.0" xmlns="http://www.w3.org/2000/svg"
 width="491.000000pt" height="794.000000pt" viewBox="0 0 491.000000 794.000000"
 preserveAspectRatio="xMidYMid meet">
<metadata>
Created by potrace 1.14, written by Peter Selinger 2001-2017
</metadata>
<g transform="translate(0.000000,794.000000) scale(0.100000,-0.100000)"
fill="#ffffff" stroke="none">
<path d="M974 7894 c-213 -128 -325 -373 -295 -646 22 -197 172 -788 297
-1170 78 -238 142 -410 223 -596 33 -75 61 -146 63 -156 3 -17 -7 -21 -62 -32
-224 -42 -371 -175 -430 -389 l-17 -60 -134 -23 c-176 -29 -234 -57 -328 -158
-153 -163 -186 -303 -136 -564 20 -103 16 -150 -31 -465 -69 -451 -65 -686 17
-1169 54 -318 102 -461 290 -877 250 -553 333 -806 374 -1144 28 -230 36 -235
344 -246 119 -4 225 -10 236 -13 11 -3 265 -36 565 -73 531 -65 551 -67 785
-68 215 0 260 3 430 29 251 38 358 66 483 126 126 62 133 72 104 161 -12 35
-31 118 -43 184 -43 227 -26 426 61 735 105 369 111 422 120 1035 8 585 2 532
104 940 60 241 131 577 211 995 103 542 139 678 376 1405 204 626 222 706 221
1000 -2 353 -56 499 -212 574 -49 23 -67 26 -165 26 -101 0 -114 -2 -156 -27
-74 -43 -168 -179 -293 -419 -81 -157 -87 -171 -270 -654 -129 -341 -159 -429
-246 -700 -86 -272 -161 -427 -290 -600 -105 -140 -261 -275 -318 -275 -15 0
-41 38 -104 153 -225 402 -339 647 -602 1286 -117 283 -176 441 -251 671 -139
423 -265 677 -479 964 -197 264 -304 323 -442 240z m150 -105 c52 -36 282
-338 391 -514 70 -111 114 -222 241 -597 156 -462 278 -769 504 -1269 177
-388 434 -874 502 -946 31 -34 75 -29 162 16 217 112 365 272 510 551 80 156
126 271 206 520 34 107 104 305 155 440 52 135 117 308 146 385 73 198 287
623 340 676 47 47 130 89 177 89 178 0 255 -325 181 -760 -28 -166 -54 -256
-215 -738 -174 -522 -226 -698 -265 -902 -17 -85 -48 -240 -70 -345 -23 -104
-78 -377 -124 -605 -46 -228 -102 -485 -123 -570 -22 -85 -53 -224 -68 -307
-16 -84 -32 -153 -35 -153 -4 0 -105 118 -224 261 -308 370 -465 528 -630 633
-29 19 -128 73 -221 120 l-169 85 -75 108 c-172 249 -625 837 -826 1075 -74
86 -143 171 -153 190 -55 92 -316 817 -400 1108 -84 295 -204 796 -232 973
-14 90 -4 158 36 244 49 108 182 248 239 252 6 1 24 -9 40 -20z m185 -2624
c16 -8 52 -42 82 -77 30 -34 101 -114 158 -178 162 -179 241 -277 426 -525
282 -379 359 -490 343 -493 -9 -2 -60 7 -114 18 -190 41 -297 51 -523 48
l-214 -3 -125 130 c-220 229 -371 426 -414 537 -53 141 -25 325 67 427 43 47
86 75 164 107 65 27 111 30 150 9z m-578 -465 c46 -13 73 -44 89 -103 31 -116
157 -288 383 -525 l128 -134 -82 -47 c-95 -53 -142 -108 -160 -187 -15 -67 -3
-122 55 -247 36 -77 42 -97 28 -93 -9 3 -66 19 -127 36 -172 49 -228 84 -388
239 -76 74 -156 162 -178 196 -61 91 -186 349 -200 411 -25 112 22 244 122
339 80 77 153 108 284 124 6 0 26 -4 46 -9z m-418 -842 c9 -23 139 -192 206
-267 112 -126 251 -226 401 -287 92 -37 164 -53 275 -58 108 -5 145 -15 215
-56 137 -79 251 -103 470 -99 l159 4 6 -55 c12 -126 26 -178 65 -254 l40 -78
-63 -72 c-142 -158 -185 -250 -208 -446 -26 -232 9 -718 57 -771 25 -27 79
-25 98 4 12 19 11 40 -6 162 -27 192 -29 553 -4 670 23 103 64 190 122 254 49
54 90 80 162 102 60 18 104 60 100 96 -3 25 -11 31 -68 51 -117 41 -170 126
-170 274 0 108 17 129 122 152 52 12 46 89 -9 102 -27 7 -39 5 -228 -45 -155
-42 -264 -49 -375 -27 -153 31 -322 131 -382 225 -32 52 -78 191 -78 239 0 44
49 97 108 116 77 25 296 49 467 50 146 0 176 -3 345 -36 390 -78 570 -152 765
-316 78 -65 705 -771 756 -852 16 -25 41 -81 56 -125 l28 -80 0 -320 c0 -356
-7 -415 -71 -635 -45 -152 -99 -406 -119 -554 -17 -134 -11 -240 26 -448 28
-155 27 -158 -81 -187 -105 -29 -396 -86 -520 -103 -150 -20 -364 -14 -735 21
-451 42 -586 57 -735 82 -136 22 -347 40 -389 34 -14 -2 -58 -6 -97 -9 l-71
-6 -12 103 c-6 56 -16 140 -22 187 -24 202 -81 378 -264 810 -219 517 -308
750 -338 890 -27 121 -74 431 -96 623 -23 202 -24 188 35 659 18 153 34 280
34 283 0 10 18 5 23 -7z"/>
</g>
</svg>
